<svg aria-hidden="true" style="position: absolute; width: 0; height: 0; overflow: hidden;" version="1.1" xmlns="http://www.w3.org/2000/svg" xmlns:xlink="http://www.w3.org/1999/xlink">
<defs>
<symbol id="icon-vector" viewBox="0 0 18 32">
<path stroke-linejoin="round" stroke-linecap="round" stroke-miterlimit="4" stroke-width="4" d="M2 30l14-14-14-14"></path>
</symbol>
<symbol id="price-icon" viewBox="0 0 48 32">
<path fill="none" stroke="#f7f7f7" style="stroke: var(--color1, #f7f7f7)" stroke-linejoin="round" stroke-linecap="round" stroke-miterlimit="4" stroke-width="7.2" d="M4 6l20 20 20-20"></path>
</symbol>
<symbol id="btn-close" viewBox="0 0 32 32">
<path fill="none" stroke="#f7f7f7" style="stroke: var(--color1, #f7f7f7)" stroke-linejoin="round" stroke-linecap="round" stroke-miterlimit="4" stroke-width="4.1143" d="M29.335 2.667l-26.667 26.665M2.667 2.667l26.667 26.665"></path>
</symbol>
<symbol id="icon-max-facebook" viewBox="0 0 32 32">
<path fill="none" stroke="#f7f7f7" style="stroke: var(--color1, #f7f7f7)" stroke-linejoin="round" stroke-linecap="round" stroke-miterlimit="4" stroke-width="2" d="M24 2.667h-4c-3.682 0-6.667 2.985-6.667 6.667v0 4h-4v5.333h4v10.667h5.333v-10.667h4l1.333-5.333h-5.333v-4c0-0.736 0.597-1.333 1.333-1.333v0h4v-5.333z"></path>
</symbol>
<symbol id="icon-max-instagram" viewBox="0 0 32 32">
<path fill="none" stroke="#f7f7f7" style="stroke: var(--color1, #f7f7f7)" stroke-linejoin="round" stroke-linecap="round" stroke-miterlimit="4" stroke-width="2" d="M22.667 2.667h-13.333c-3.682 0-6.667 2.985-6.667 6.667v0 13.333c0 3.682 2.985 6.667 6.667 6.667v0h13.333c3.682 0 6.667-2.985 6.667-6.667v0-13.333c0-3.682-2.985-6.667-6.667-6.667v0z"></path>
<path fill="none" stroke="#f7f7f7" style="stroke: var(--color1, #f7f7f7)" stroke-linejoin="round" stroke-linecap="round" stroke-miterlimit="4" stroke-width="2" d="M21.333 15.16c0.042 0.251 0.066 0.54 0.066 0.834 0 2.946-2.388 5.333-5.333 5.333-2.688 0-4.911-1.988-5.28-4.574l-0.003-0.028c-0.032-0.22-0.050-0.473-0.050-0.731 0-2.946 2.388-5.333 5.333-5.333 2.651 0 4.85 1.934 5.264 4.468l0.004 0.031zM23.333 8.667h0.016"></path>
</symbol>
<symbol id="icon-max-twitter" viewBox="0 0 32 32">
<path fill="none" stroke="#f7f7f7" style="stroke: var(--color1, #f7f7f7)" stroke-linejoin="round" stroke-linecap="round" stroke-miterlimit="4" stroke-width="2" d="M30.667 4c-1.2 0.856-2.591 1.552-4.084 2.013l-0.103 0.027c-1.101-1.261-2.712-2.053-4.507-2.053-3.299 0-5.973 2.674-5.973 5.973 0 0.028 0 0.056 0.001 0.084l-0-0.004v1.333c-0.11 0.003-0.239 0.005-0.368 0.005-4.79 0-9.027-2.37-11.602-6.001l-0.030-0.044s-5.333 12 6.667 17.333c-2.442 1.677-5.462 2.679-8.716 2.679-0.217 0-0.433-0.004-0.648-0.013l0.031 0.001c12 6.667 26.667 0 26.667-15.333 0-0.372-0.037-0.741-0.107-1.107 1.323-1.305 2.293-2.963 2.758-4.822l0.015-0.071z"></path>
</symbol>
<symbol id="icon-min-facebook" viewBox="0 0 32 32">
<path fill="none" stroke="#f7f7f7" style="stroke: var(--color1, #f7f7f7)" stroke-linejoin="round" stroke-linecap="round" stroke-miterlimit="4" stroke-width="2.0800" d="M24 2.666h-4c-3.681 0.001-6.666 2.986-6.666 6.667v0 4h-4v5.333h4v10.667h5.333v-10.667h4l1.333-5.333h-5.333v-4c0-0 0-0.001 0-0.002 0-0.736 0.597-1.333 1.333-1.333h4v-5.333z"></path>
</symbol>
<symbol id="icon-min-instagram" viewBox="0 0 32 32">
<path fill="none" stroke="#f7f7f7" style="stroke: var(--color1, #f7f7f7)" stroke-linejoin="round" stroke-linecap="round" stroke-miterlimit="4" stroke-width="2.0800" d="M22.666 2.666h-13.333c-3.682 0-6.667 2.985-6.667 6.667v0 13.333c0 3.682 2.985 6.667 6.667 6.667v0h13.334c3.681-0.001 6.666-2.986 6.666-6.667v0-13.333c0-3.682-2.984-6.666-6.666-6.667h-0z"></path>
<path fill="none" stroke="#f7f7f7" style="stroke: var(--color1, #f7f7f7)" stroke-linejoin="round" stroke-linecap="round" stroke-miterlimit="4" stroke-width="2.0800" d="M21.333 15.16c0.045 0.261 0.071 0.562 0.071 0.868 0 2.946-2.388 5.334-5.334 5.334-2.7 0-4.932-2.007-5.286-4.61l-0.003-0.028c-0.029-0.209-0.046-0.451-0.046-0.697 0-2.946 2.388-5.334 5.334-5.334 2.64 0 4.831 1.917 5.259 4.435l0.004 0.031zM23.334 8.666h0.016"></path>
</symbol>
<symbol id="icon-min-twitter" viewBox="0 0 32 32">
<path fill="none" stroke="#f7f7f7" style="stroke: var(--color1, #f7f7f7)" stroke-linejoin="round" stroke-linecap="round" stroke-miterlimit="4" stroke-width="2.0800" d="M30.667 4c-1.2 0.857-2.591 1.553-4.084 2.014l-0.103 0.027c-1.101-1.262-2.712-2.054-4.508-2.054-3.299 0-5.973 2.674-5.973 5.973 0 0.029 0 0.057 0.001 0.086l-0-0.004v1.333c-0.11 0.003-0.239 0.005-0.369 0.005-4.79 0-9.027-2.37-11.602-6.001l-0.030-0.044s-5.333 12 6.667 17.333c-2.442 1.678-5.463 2.679-8.717 2.679-0.217 0-0.433-0.004-0.648-0.013l0.031 0.001c12 6.666 26.667 0 26.667-15.334 0-0.373-0.037-0.742-0.107-1.107 1.323-1.305 2.294-2.963 2.759-4.822l0.015-0.071z"></path>
</symbol>
<symbol id="icon-menu-open" viewBox="0 0 46 32">
<path stroke-linejoin="round" stroke-linecap="round" stroke-miterlimit="4" stroke-width="3.5556" d="M1.778 16h42.667M1.778 1.778h42.667M1.778 30.222h28.444"></path>
</symbol>
<symbol id="icon-menu-close" viewBox="0 0 32 32">
<path fill="none" stroke="#f7f7f7" style="stroke: var(--color1, #f7f7f7)" stroke-linejoin="round" stroke-linecap="round" stroke-miterlimit="4" stroke-width="4" d="M30 2l-28 28M2 2l28 28"></path>
</symbol>
<symbol id="facebook" viewBox="0 0 32 32">
<path  stroke-linejoin="round" stroke-linecap="round" stroke-miterlimit="4" stroke-width="2" d="M24 2.667h-4c-1.768 0-3.464 0.702-4.714 1.953s-1.953 2.946-1.953 4.714v4h-4v5.333h4v10.667h5.333v-10.667h4l1.333-5.333h-5.333v-4c0-0.354 0.141-0.693 0.391-0.943s0.589-0.391 0.943-0.391h4v-5.333z"></path>
</symbol>
<symbol id="instagram" viewBox="0 0 32 32">
<path  stroke-linejoin="round" stroke-linecap="round" stroke-miterlimit="4" stroke-width="2" d="M22.667 2.667h-13.333c-3.682 0-6.667 2.985-6.667 6.667v13.333c0 3.682 2.985 6.667 6.667 6.667h13.333c3.682 0 6.667-2.985 6.667-6.667v-13.333c0-3.682-2.985-6.667-6.667-6.667z"></path>
<path  stroke-linejoin="round" stroke-linecap="round" stroke-miterlimit="4" stroke-width="2" d="M21.334 15.16c0.165 1.11-0.025 2.243-0.542 3.239s-1.334 1.803-2.336 2.307c-1.002 0.504-2.138 0.68-3.245 0.502s-2.131-0.701-2.924-1.494-1.316-1.816-1.494-2.924c-0.178-1.108-0.003-2.243 0.502-3.245s1.312-1.819 2.308-2.336 2.129-0.706 3.239-0.542c1.132 0.168 2.18 0.695 2.989 1.504s1.337 1.857 1.504 2.989z"></path>
<path  stroke-linejoin="round" stroke-linecap="round" stroke-miterlimit="4" stroke-width="2" d="M23.333 8.667h0.016"></path>
</symbol>
<symbol id="twitter" viewBox="0 0 32 32">
<path  stroke-linejoin="round" stroke-linecap="round" stroke-miterlimit="4" stroke-width="2" d="M30.667 4c-1.277 0.901-2.691 1.589-4.187 2.040-0.803-0.923-1.87-1.578-3.057-1.875s-2.437-0.222-3.58 0.214c-1.143 0.436-2.125 1.213-2.812 2.226s-1.047 2.212-1.031 3.435v1.333c-2.343 0.061-4.665-0.459-6.759-1.513s-3.894-2.609-5.241-4.527c0 0-5.333 12 6.667 17.333-2.746 1.864-6.017 2.799-9.333 2.667 12 6.667 26.667 0 26.667-15.333-0.001-0.371-0.037-0.742-0.107-1.107 1.361-1.342 2.321-3.036 2.773-4.893z"></path>
</symbol>
</defs>
</svg>
